<?xml version="1.0" encoding="iso-8859-1"?>
<!-- Uploaded to: SVG Repo, www.svgrepo.com, Generator: SVG Repo Mixer Tools -->
<svg fill="#000000" height="32" width="32" version="1.1" id="Capa_1" xmlns="http://www.w3.org/2000/svg" xmlns:xlink="http://www.w3.org/1999/xlink" 
	 viewBox="0 0 463 463" xml:space="preserve">
<g>
	<path d="M231.5,399c17.369,0,31.5-14.131,31.5-31.5S248.869,336,231.5,336S200,350.131,200,367.5S214.131,399,231.5,399z
		 M231.5,351c9.098,0,16.5,7.402,16.5,16.5s-7.402,16.5-16.5,16.5s-16.5-7.402-16.5-16.5S222.402,351,231.5,351z"/>
	<path d="M399.5,103c4.143,0,7.5-3.358,7.5-7.5v-80C407,6.953,400.047,0,391.5,0h-32C350.953,0,344,6.953,344,15.5v2.097
		C341.362,16.57,338.497,16,335.5,16s-5.862,0.57-8.5,1.597V15.5C327,6.953,320.047,0,311.5,0h-88c-4.143,0-7.5,3.358-7.5,7.5V8
		h-35.631c-11.805,0-21.945,8.05-26.212,19.463l-71.18,150.669c-0.032,0.068-0.055,0.137-0.085,0.205
		C81.041,182.346,80,186.802,80,191.5c0,7.568,2.684,14.52,7.148,19.957l1.199,1.759c-1.285,3.521-9.016,26.531-3.473,56.642
		c9.398,51.057,49.518,83.447,83.126,102.098V392H95.5C82.542,392,72,402.542,72,415.5V448h-8.5c-4.143,0-7.5,3.358-7.5,7.5
		s3.357,7.5,7.5,7.5h336c4.143,0,7.5-3.358,7.5-7.5s-3.357-7.5-7.5-7.5H391v-32.5c0-12.958-10.542-23.5-23.5-23.5H295v-24.5
		c0-35.014-28.486-63.5-63.5-63.5c-1.689,0-3.358,0.086-5.014,0.216L145.33,185.188L181.014,71H216v0.5c0,4.142,3.357,7.5,7.5,7.5
		h88c8.547,0,15.5-6.953,15.5-15.5v-2.097c2.638,1.027,5.503,1.597,8.5,1.597s5.862-0.57,8.5-1.597V95.5c0,4.142,3.357,7.5,7.5,7.5
		h0.5v17h-0.5c-4.143,0-7.5,3.358-7.5,7.5v32c0,4.142,3.357,7.5,7.5,7.5h2.144l6.58,26.319c0.835,3.339,3.835,5.681,7.276,5.681h0.5
		v28.114c-4.188,2.545-7,7.138-7,12.386c0,7.995,6.505,14.5,14.5,14.5s14.5-6.505,14.5-14.5c0-5.248-2.813-9.84-7-12.386V199h0.5
		c3.441,0,6.441-2.342,7.276-5.681l6.58-26.319h2.144c4.143,0,7.5-3.358,7.5-7.5v-32c0-4.142-3.357-7.5-7.5-7.5H399v-17H399.5z
		 M359,15.5c0-0.276,0.225-0.5,0.5-0.5h32c0.275,0,0.5,0.224,0.5,0.5V88h-33V15.5z M166.55,66.996l-32.157,102.901
		C128.646,163.81,120.512,160,111.5,160c-1.169,0-2.322,0.069-3.459,0.194l48.752-103.195
		C159.285,61.125,162.633,64.559,166.55,66.996z M95,191.5c0-9.098,7.402-16.5,16.5-16.5c9.09,0,16.486,7.389,16.499,16.477
		c0,0.013,0,0.026,0,0.039C127.99,200.607,120.592,208,111.5,208C102.402,208,95,200.598,95,191.5z M99.767,267.889
		c-2.996-15.637-1.827-29.214-0.192-38.207l74.919,109.88c-2.429,4.937-4.232,10.232-5.313,15.784
		C129.769,332.027,106.427,302.648,99.767,267.889z M367.5,407c4.687,0,8.5,3.813,8.5,8.5V448H87v-32.5c0-4.687,3.813-8.5,8.5-8.5
		H168v16.5c0,4.142,3.357,7.5,7.5,7.5h112c4.143,0,7.5-3.358,7.5-7.5V407H367.5z M280,367.5V416h-97v-48.5
		c0-26.743,21.757-48.5,48.5-48.5S280,340.757,280,367.5z M183.444,326.064l-70.3-103.107c12.087-0.624,22.386-8.097,27.102-18.6
		l70.358,103.192C199.986,311.261,190.652,317.716,183.444,326.064z M180.369,56C172.997,56,167,48.598,167,39.5
		S172.997,23,180.369,23H216v9h-32.5c-4.143,0-7.5,3.358-7.5,7.5s3.357,7.5,7.5,7.5H216v9H180.369z M312,63.5
		c0,0.276-0.225,0.5-0.5,0.5H231v-0.5v-48V15h80.5c0.275,0,0.5,0.224,0.5,0.5V63.5z M335.5,48c-4.687,0-8.5-3.813-8.5-8.5
		s3.813-8.5,8.5-8.5s8.5,3.813,8.5,8.5S340.187,48,335.5,48z M392,135v17h-0.5h-32H359v-17H392z M377.645,184h-4.289l-4.25-17
		h12.789L377.645,184z M384,120h-17v-17h17V120z"/>
</g>
</svg>